<?xml version="1.0" encoding="utf-8"?><svg version="1.1" id="Layer_1" xmlns="http://www.w3.org/2000/svg" xmlns:xlink="http://www.w3.org/1999/xlink" x="0px" y="0px" viewBox="0 0 121.43 122.88" style="enable-background:new 0 0 121.43 122.88" xml:space="preserve"><g><path d="M58.68,10.21L6.13,116.43l52.55-27.99V10.21L58.68,10.21z M62.44,1.26l58.8,118.84c0.47,0.95,0.08,2.11-0.88,2.58 c-0.58,0.29-1.23,0.25-1.76-0.04l0,0.01L60.62,91.78L2.64,122.66L0,120.1L58.89,1.08l0.01,0C59.21,0.44,59.86,0,60.62,0 c0,0,0,0,0,0C61.43,0,62.15,0.5,62.44,1.26L62.44,1.26L62.44,1.26z"/></g></svg>